v 0.465264 0.130212 -1.781004
v 0.237189 0.130212 -1.890704
v 0.000000 0.130211 -0.000001
v 0.675459 0.130212 -1.602861
v 0.859696 0.130211 -1.363122
v 1.010895 0.130211 -1.070998
v 1.123247 0.130211 -0.737716
v 1.192432 0.130211 -0.376085
v 1.215793 0.130211 0.000000
v 1.192432 0.130211 0.376084
v 1.123247 0.130211 0.737715
v 1.010895 0.130211 1.070998
v 0.859696 0.130211 1.363122
v 0.675459 0.130211 1.602861
v 0.465264 0.130211 1.781005
v 0.237189 0.130211 1.890704
v -0.000001 0.130211 1.927745
v -0.237190 0.130211 1.890704
v -0.465265 0.130211 1.781004
v -0.675459 0.130211 1.602861
v -0.859697 0.130211 1.363121
v -1.010896 0.130211 1.070996
v -1.123248 0.130211 0.737715
v -1.192432 0.130211 0.376083
v -1.215793 0.130211 -0.000002
v -1.192432 0.130211 -0.376086
v -1.123246 0.130211 -0.737718
v -1.010895 0.130211 -1.071000
v -0.859695 0.130211 -1.363123
v -0.675457 0.130212 -1.602863
v -0.465262 0.130212 -1.781006
v 0.000000 0.130212 -1.927745
v -0.237188 0.130212 -1.890705
v 0.728366 -0.000000 1.728410
v 0.501707 -0.000000 1.920506
v 0.000000 0.000000 -0.000001
v 0.501707 0.000000 -1.920506
v 0.728366 0.000000 -1.728410
v -1.311023 0.000000 -0.000002
v -1.285832 0.000000 -0.405544
v 1.211228 -0.000000 0.795499
v 1.090076 -0.000000 1.154886
v -1.090077 -0.000000 1.154885
v -1.211228 -0.000000 0.795498
v 1.285833 0.000000 -0.405542
v 1.311024 0.000000 0.000000
v 0.000000 0.000000 -2.078740
v 0.255768 0.000000 -2.038798
v -0.501707 -0.000000 1.920505
v -0.728366 -0.000000 1.728409
v -0.728364 0.000000 -1.728411
v -0.501705 0.000000 -1.920507
v 0.255768 -0.000000 2.038798
v -0.000001 -0.000000 2.078740
v 0.927034 0.000000 -1.469891
v 1.090076 0.000000 -1.154886
v -1.211228 0.000000 -0.795502
v -1.090075 0.000000 -1.154888
v 0.927034 -0.000000 1.469891
v -1.285833 -0.000000 0.405540
v 1.285833 -0.000000 0.405542
v -0.927034 -0.000000 1.469890
v -0.255766 0.000000 -2.038798
v 1.211228 0.000000 -0.795500
v -0.255768 -0.000000 2.038797
v -0.927032 0.000000 -1.469893
v -0.240522 0.121884 -1.917282
v 0.000000 0.121884 -1.954844
v 1.025106 0.121883 -1.086053
v 1.139037 0.121883 -0.748086
v -0.000001 0.121883 1.954844
v -0.240524 0.121883 1.917282
v -0.471803 0.121884 -1.806042
v -0.684954 0.121883 1.625393
v -0.871781 0.121883 1.382283
v 0.240524 0.121884 -1.917282
v 0.471805 0.121884 -1.806040
v 1.232884 0.121883 0.000000
v 1.209195 0.121883 0.381371
v -1.139037 0.121883 0.748084
v -1.209195 0.121883 0.381369
v 1.025106 0.121883 1.086053
v 0.871781 0.121883 1.382284
v -1.209195 0.121883 -0.381373
v -1.139036 0.121883 -0.748089
v 0.684954 0.121883 -1.625394
v 0.871781 0.121883 -1.382284
v 0.471804 0.121883 1.806041
v 0.240524 0.121883 1.917282
v -0.871780 0.121883 -1.382285
v -0.684952 0.121883 -1.625395
v -0.471805 0.121883 1.806040
v 1.209195 0.121883 -0.381371
v -1.025107 0.121883 1.086052
v 1.139037 0.121883 0.748086
v -1.232884 0.121883 -0.000002
v 0.684954 0.121883 1.625394
v -1.025105 0.121883 -1.086055
vt 0.706107 0.021100
vt 0.706126 0.021095
vt 0.706136 0.021231
vt 0.706088 0.021110
vt 0.706071 0.021126
vt 0.706056 0.021144
vt 0.706045 0.021167
vt 0.706038 0.021191
vt 0.706034 0.021218
vt 0.706034 0.021245
vt 0.706038 0.021272
vt 0.706045 0.021297
vt 0.706056 0.021319
vt 0.706071 0.021338
vt 0.706088 0.021354
vt 0.706107 0.021364
vt 0.706126 0.021369
vt 0.706147 0.021369
vt 0.706166 0.021364
vt 0.706185 0.021354
vt 0.706202 0.021338
vt 0.706217 0.021319
vt 0.706228 0.021297
vt 0.706235 0.021272
vt 0.706239 0.021245
vt 0.706239 0.021218
vt 0.706235 0.021191
vt 0.706228 0.021167
vt 0.706217 0.021144
vt 0.706202 0.021126
vt 0.706185 0.021110
vt 0.706147 0.021095
vt 0.706166 0.021100
vt 0.706046 0.021017
vt 0.706038 0.020990
vt 0.706145 0.020947
vt 0.706243 0.021017
vt 0.706231 0.021040
vt 0.706155 0.020799
vt 0.706176 0.020804
vt 0.706092 0.021077
vt 0.706074 0.021061
vt 0.706092 0.020815
vt 0.706112 0.020804
vt 0.706155 0.021095
vt 0.706133 0.021095
vt 0.706256 0.020961
vt 0.706252 0.020990
vt 0.706046 0.020876
vt 0.706058 0.020852
vt 0.706243 0.020876
vt 0.706252 0.020904
vt 0.706034 0.020961
vt 0.706034 0.020931
vt 0.706216 0.021061
vt 0.706197 0.021077
vt 0.706197 0.020815
vt 0.706216 0.020832
vt 0.706058 0.021040
vt 0.706133 0.020799
vt 0.706112 0.021089
vt 0.706074 0.020832
vt 0.706256 0.020931
vt 0.706176 0.021089
vt 0.706038 0.020904
vt 0.706231 0.020852
vt 0.705824 0.021113
vt 0.705847 0.021116
vt 0.705846 0.021143
vt 0.705824 0.021143
vt 0.705847 0.021286
vt 0.705867 0.021275
vt 0.705876 0.021298
vt 0.705856 0.021313
vt 0.706027 0.020799
vt 0.706033 0.020827
vt 0.706013 0.020835
vt 0.706006 0.020807
vt 0.705827 0.021084
vt 0.705850 0.021090
vt 0.705966 0.020830
vt 0.705976 0.020856
vt 0.705958 0.020870
vt 0.705946 0.020844
vt 0.705824 0.021172
vt 0.705847 0.021170
vt 0.705850 0.021196
vt 0.705827 0.021202
vt 0.705880 0.021362
vt 0.705898 0.021343
vt 0.705911 0.021364
vt 0.705895 0.021385
vt 0.705911 0.020880
vt 0.705926 0.020903
vt 0.705911 0.020922
vt 0.705895 0.020901
vt 0.705928 0.021425
vt 0.705942 0.021401
vt 0.705958 0.021416
vt 0.705946 0.021441
vt 0.705867 0.020948
vt 0.705887 0.020964
vt 0.705876 0.020988
vt 0.705856 0.020973
vt 0.705832 0.021230
vt 0.705854 0.021223
vt 0.705860 0.021249
vt 0.705838 0.021259
vt 0.705985 0.021469
vt 0.705995 0.021441
vt 0.706013 0.021451
vt 0.706006 0.021479
vt 0.705838 0.021027
vt 0.705860 0.021037
vt 0.705854 0.021063
vt 0.705832 0.021056
vt 0.705995 0.020845
vt 0.705985 0.020817
vt 0.705887 0.021322
vt 0.705867 0.021338
vt 0.705942 0.020885
vt 0.705928 0.020861
vt 0.705926 0.021384
vt 0.705911 0.021406
vt 0.705898 0.020943
vt 0.705880 0.020923
vt 0.705976 0.021430
vt 0.705966 0.021456
vt 0.705867 0.021012
vt 0.705847 0.020999
vt 0.706033 0.021459
vt 0.706027 0.021487
vt 0.705848 0.021143
vt 0.705849 0.021170
vt 0.705852 0.021196
vt 0.705856 0.021222
vt 0.705861 0.021248
vt 0.705869 0.021273
vt 0.705877 0.021297
vt 0.705888 0.021320
vt 0.705900 0.021341
vt 0.705913 0.021362
vt 0.705928 0.021382
vt 0.705943 0.021398
vt 0.705960 0.021413
vt 0.705977 0.021428
vt 0.705995 0.021439
vt 0.706014 0.021448
vt 0.706034 0.021455
vt 0.706034 0.020831
vt 0.706014 0.020838
vt 0.705995 0.020847
vt 0.705977 0.020858
vt 0.705960 0.020872
vt 0.705943 0.020887
vt 0.705928 0.020905
vt 0.705913 0.020923
vt 0.705900 0.020944
vt 0.705888 0.020965
vt 0.705877 0.020989
vt 0.705869 0.021013
vt 0.705861 0.021038
vt 0.705856 0.021064
vt 0.705852 0.021090
vt 0.705849 0.021116
vn -0.0000 1.0000 0.0000
vn 0.0000 -1.0000 -0.0000
vn -0.2727 -0.3446 -0.8983
vn -0.1626 0.8433 -0.5123
vn -0.0000 0.8486 -0.5290
vn 0.0000 -0.3362 -0.9418
vn 0.8204 -0.4460 -0.3577
vn 0.5889 0.7693 -0.2477
vn 0.6351 0.7545 -0.1658
vn 0.8557 -0.4629 -0.2312
vn 0.0000 -0.3362 0.9418
vn -0.0000 0.8486 0.5290
vn -0.1626 0.8433 0.5123
vn -0.2726 -0.3445 0.8983
vn -0.4975 -0.3664 -0.7863
vn -0.3083 0.8288 -0.4669
vn -0.6568 -0.3947 0.6425
vn -0.4282 0.8091 0.4024
vn -0.5210 0.7882 0.3276
vn -0.7588 -0.4228 0.4955
vn 0.2727 -0.3446 -0.8983
vn 0.1626 0.8433 -0.5123
vn 0.3083 0.8288 -0.4669
vn 0.4975 -0.3663 -0.7863
vn 0.8793 -0.4762 0.0000
vn 0.6705 0.7419 0.0000
vn 0.6618 0.7451 0.0830
vn 0.8738 -0.4729 0.1133
vn -0.8557 -0.4629 0.2312
vn -0.6351 0.7545 0.1658
vn -0.6618 0.7451 0.0830
vn -0.8738 -0.4729 0.1133
vn 0.8204 -0.4460 0.3577
vn 0.5889 0.7693 0.2477
vn 0.5210 0.7882 0.3276
vn 0.7588 -0.4228 0.4955
vn -0.8738 -0.4729 -0.1133
vn -0.6618 0.7451 -0.0830
vn -0.6351 0.7545 -0.1658
vn -0.8557 -0.4629 -0.2312
vn 0.6568 -0.3947 -0.6425
vn 0.4282 0.8091 -0.4024
vn 0.5210 0.7882 -0.3276
vn 0.7588 -0.4228 -0.4955
vn 0.4975 -0.3663 0.7863
vn 0.3083 0.8288 0.4669
vn 0.1626 0.8433 0.5123
vn 0.2726 -0.3445 0.8983
vn -0.7588 -0.4228 -0.4955
vn -0.5210 0.7882 -0.3276
vn -0.4282 0.8091 -0.4024
vn -0.6568 -0.3948 -0.6425
vn -0.3083 0.8288 0.4669
vn -0.4975 -0.3663 0.7863
vn 0.6618 0.7451 -0.0830
vn 0.8738 -0.4729 -0.1133
vn -0.5889 0.7693 0.2477
vn -0.8204 -0.4460 0.3577
vn 0.6351 0.7545 0.1658
vn 0.8557 -0.4629 0.2312
vn -0.6705 0.7419 -0.0000
vn -0.8793 -0.4762 0.0000
vn 0.4282 0.8091 0.4024
vn 0.6568 -0.3947 0.6425
vn -0.5889 0.7693 -0.2477
vn -0.8204 -0.4460 -0.3577
vn 0.0000 0.9890 -0.1476
vn 0.0496 0.9881 -0.1456
vn 0.0978 0.9855 -0.1387
vn 0.1423 0.9818 -0.1257
vn 0.1806 0.9777 -0.1070
vn 0.2107 0.9740 -0.0835
vn 0.2321 0.9710 -0.0571
vn 0.2447 0.9692 -0.0288
vn 0.2489 0.9685 0.0000
vn 0.2447 0.9692 0.0288
vn 0.2321 0.9710 0.0571
vn 0.2107 0.9740 0.0835
vn 0.1806 0.9777 0.1070
vn 0.1423 0.9818 0.1257
vn 0.0978 0.9855 0.1387
vn 0.0496 0.9881 0.1456
vn 0.0000 0.9890 0.1476
vn -0.0496 0.9881 0.1456
vn -0.0978 0.9855 0.1387
vn -0.1423 0.9818 0.1257
vn -0.1806 0.9777 0.1070
vn -0.2107 0.9740 0.0835
vn -0.2321 0.9710 0.0571
vn -0.2447 0.9692 0.0288
vn -0.2489 0.9685 -0.0000
vn -0.2447 0.9692 -0.0288
vn -0.2321 0.9710 -0.0571
vn -0.2107 0.9740 -0.0835
vn -0.1806 0.9777 -0.1070
vn -0.1423 0.9818 -0.1257
vn -0.0978 0.9855 -0.1387
vn -0.0496 0.9881 -0.1456
f 1/1/1 2/2/1 3/3/1
f 4/4/1 1/1/1 3/3/1
f 5/5/1 4/4/1 3/3/1
f 6/6/1 5/5/1 3/3/1
f 7/7/1 6/6/1 3/3/1
f 8/8/1 7/7/1 3/3/1
f 9/9/1 8/8/1 3/3/1
f 10/10/1 9/9/1 3/3/1
f 11/11/1 10/10/1 3/3/1
f 12/12/1 11/11/1 3/3/1
f 13/13/1 12/12/1 3/3/1
f 14/14/1 13/13/1 3/3/1
f 15/15/1 14/14/1 3/3/1
f 16/16/1 15/15/1 3/3/1
f 17/17/1 16/16/1 3/3/1
f 18/18/1 17/17/1 3/3/1
f 19/19/1 18/18/1 3/3/1
f 20/20/1 19/19/1 3/3/1
f 21/21/1 20/20/1 3/3/1
f 22/22/1 21/21/1 3/3/1
f 23/23/1 22/22/1 3/3/1
f 24/24/1 23/23/1 3/3/1
f 25/25/1 24/24/1 3/3/1
f 26/26/1 25/25/1 3/3/1
f 27/27/1 26/26/1 3/3/1
f 28/28/1 27/27/1 3/3/1
f 29/29/1 28/28/1 3/3/1
f 30/30/1 29/29/1 3/3/1
f 31/31/1 30/30/1 3/3/1
f 32/32/1 33/33/1 3/3/1
f 33/33/1 31/31/1 3/3/1
f 2/2/1 32/32/1 3/3/1
f 34/34/2 35/35/2 36/36/2
f 37/37/2 38/38/2 36/36/2
f 39/39/2 40/40/2 36/36/2
f 41/41/2 42/42/2 36/36/2
f 43/43/2 44/44/2 36/36/2
f 45/45/2 46/46/2 36/36/2
f 47/47/2 48/48/2 36/36/2
f 49/49/2 50/50/2 36/36/2
f 51/51/2 52/52/2 36/36/2
f 53/53/2 54/54/2 36/36/2
f 55/55/2 56/56/2 36/36/2
f 57/57/2 58/58/2 36/36/2
f 59/59/2 34/34/2 36/36/2
f 48/48/2 37/37/2 36/36/2
f 60/60/2 39/39/2 36/36/2
f 61/61/2 41/41/2 36/36/2
f 62/62/2 43/43/2 36/36/2
f 63/63/2 47/47/2 36/36/2
f 64/64/2 45/45/2 36/36/2
f 65/65/2 49/49/2 36/36/2
f 66/66/2 51/51/2 36/36/2
f 35/35/2 53/53/2 36/36/2
f 38/38/2 55/55/2 36/36/2
f 40/40/2 57/57/2 36/36/2
f 42/42/2 59/59/2 36/36/2
f 44/44/2 60/60/2 36/36/2
f 46/46/2 61/61/2 36/36/2
f 50/50/2 62/62/2 36/36/2
f 52/52/2 63/63/2 36/36/2
f 56/56/2 64/64/2 36/36/2
f 54/54/2 65/65/2 36/36/2
f 58/58/2 66/66/2 36/36/2
f 63/67/3 67/68/4 68/69/5 47/70/6
f 56/71/7 69/72/8 70/73/9 64/74/10
f 54/75/11 71/76/12 72/77/13 65/78/14
f 52/79/15 73/80/16 67/68/4 63/67/3
f 50/81/17 74/82/18 75/83/19 62/84/20
f 48/85/21 76/86/22 77/87/23 37/88/24
f 46/89/25 78/90/26 79/91/27 61/92/28
f 44/93/29 80/94/30 81/95/31 60/96/32
f 42/97/33 82/98/34 83/99/35 59/100/36
f 40/101/37 84/102/38 85/103/39 57/104/40
f 38/105/41 86/106/42 87/107/43 55/108/44
f 35/109/45 88/110/46 89/111/47 53/112/48
f 66/113/49 90/114/50 91/115/51 51/116/52
f 65/78/14 72/77/13 92/117/53 49/118/54
f 64/74/10 70/73/9 93/119/55 45/120/56
f 62/84/20 75/83/19 94/121/57 43/122/58
f 61/92/28 79/91/27 95/123/59 41/124/60
f 60/96/32 81/95/31 96/125/61 39/126/62
f 59/100/36 83/99/35 97/127/63 34/128/64
f 57/104/40 85/103/39 98/129/65 58/130/66
f 55/108/44 87/107/43 69/72/8 56/71/7
f 53/112/48 89/111/47 71/131/12 54/132/11
f 51/116/52 91/115/51 73/80/16 52/79/15
f 49/118/54 92/117/53 74/82/18 50/81/17
f 45/120/56 93/119/55 78/90/26 46/89/25
f 43/122/58 94/121/57 80/94/30 44/93/29
f 41/124/60 95/123/59 82/98/34 42/97/33
f 58/130/66 98/129/65 90/114/50 66/113/49
f 34/128/64 97/127/63 88/110/46 35/109/45
f 37/88/24 77/87/23 86/106/42 38/105/41
f 39/126/62 96/125/61 84/102/38 40/101/37
f 76/86/22 68/69/5 32/133/67 2/134/68
f 77/87/23 76/86/22 2/134/68 1/135/69
f 86/106/42 77/87/23 1/135/69 4/136/70
f 87/107/43 86/106/42 4/136/70 5/137/71
f 69/72/8 87/107/43 5/137/71 6/138/72
f 70/73/9 69/72/8 6/138/72 7/139/73
f 93/119/55 70/73/9 7/139/73 8/140/74
f 78/90/26 93/119/55 8/140/74 9/141/75
f 79/91/27 78/90/26 9/141/75 10/142/76
f 95/123/59 79/91/27 10/142/76 11/143/77
f 82/98/34 95/123/59 11/143/77 12/144/78
f 83/99/35 82/98/34 12/144/78 13/145/79
f 97/127/63 83/99/35 13/145/79 14/146/80
f 88/110/46 97/127/63 14/146/80 15/147/81
f 89/111/47 88/110/46 15/147/81 16/148/82
f 71/131/12 89/111/47 16/148/82 17/149/83
f 72/77/13 71/76/12 17/150/83 18/151/84
f 92/117/53 72/77/13 18/151/84 19/152/85
f 74/82/18 92/117/53 19/152/85 20/153/86
f 75/83/19 74/82/18 20/153/86 21/154/87
f 94/121/57 75/83/19 21/154/87 22/155/88
f 80/94/30 94/121/57 22/155/88 23/156/89
f 81/95/31 80/94/30 23/156/89 24/157/90
f 96/125/61 81/95/31 24/157/90 25/158/91
f 84/102/38 96/125/61 25/158/91 26/159/92
f 85/103/39 84/102/38 26/159/92 27/160/93
f 98/129/65 85/103/39 27/160/93 28/161/94
f 90/114/50 98/129/65 28/161/94 29/162/95
f 91/115/51 90/114/50 29/162/95 30/163/96
f 73/80/16 91/115/51 30/163/96 31/164/97
f 67/68/4 73/80/16 31/164/97 33/165/98
f 68/69/5 67/68/4 33/165/98 32/133/67
f 47/70/6 68/69/5 76/86/22 48/85/21
