o 160mm
v 4.753099 0.024463 -0.945449
v 4.477322 0.024463 -1.854566
v 4.305346 0.360290 -1.783332
v 4.570530 0.360290 -0.909133
v 4.029483 0.024463 -2.692415
v 3.874709 0.360290 -2.588997
v 3.426795 0.024466 -3.426794
v 3.295170 0.360293 -3.295169
v 2.692416 0.024466 -4.029483
v 2.588999 0.360293 -3.874709
v 1.854569 0.024466 -4.477324
v 1.783334 0.360293 -4.305347
v 0.945451 0.024466 -4.753102
v 0.909136 0.360293 -4.570532
v 0.000001 0.024466 -4.846221
v 0.000001 0.360293 -4.660075
v -0.945450 0.024466 -4.753103
v -0.909135 0.360293 -4.570534
v -1.854568 0.024466 -4.477326
v -1.783333 0.360293 -4.305349
v -2.692416 0.024466 -4.029487
v -2.588998 0.360293 -3.874712
v -3.426796 0.024466 -3.426798
v -3.295170 0.360293 -3.295173
v -4.029486 0.024463 -2.692419
v -3.874711 0.360290 -2.589002
v -4.477326 0.024463 -1.854571
v -4.305349 0.360290 -1.783336
v -4.753104 0.024463 -0.945453
v -4.570535 0.360290 -0.909138
v -4.846223 0.024463 -0.000003
v -4.660078 0.360290 -0.000003
v -4.753106 0.024463 0.945449
v -4.570536 0.360290 0.909133
v -4.477328 0.024463 1.854566
v -4.305351 0.360290 1.783332
v -4.029489 0.024463 2.692415
v -3.874714 0.360290 2.588997
v -3.426799 0.024460 3.426795
v -3.295174 0.360287 3.295170
v -2.692420 0.024460 4.029485
v -2.589002 0.360287 3.874710
v -1.854571 0.024460 4.477324
v -1.783336 0.360287 4.305347
v -0.945454 0.024460 4.753103
v -0.909138 0.360287 4.570534
v -0.000002 0.024460 4.846221
v -0.000002 0.360287 4.660077
v 0.945449 0.024460 4.753105
v 0.909134 0.360287 4.570534
v 1.854567 0.024460 4.477326
v 1.783332 0.360287 4.305349
v 2.692416 0.024460 4.029487
v 2.588998 0.360287 3.874712
v 3.426796 0.024460 3.426797
v 3.295171 0.360287 3.295172
v 4.029486 0.024463 2.692418
v 3.874712 0.360290 2.589001
v 4.477326 0.024463 1.854569
v 4.305349 0.360290 1.783333
v 4.753105 0.024463 0.945451
v 4.570535 0.360290 0.909135
v 4.846223 0.024463 -0.000001
v 4.660078 0.360290 -0.000001
v -0.000002 0.024463 -0.000001
v -0.000002 0.360290 -0.000001
vt 0.410498 0.531319
vt 0.410304 0.531319
vt 0.410319 0.531247
vt 0.410506 0.531247
vt 0.410125 0.531319
vt 0.410147 0.531247
vt 0.409967 0.531319
vt 0.409996 0.531247
vt 0.409838 0.531319
vt 0.409871 0.531247
vt 0.409838 0.531030
vt 0.410018 0.531030
vt 0.410033 0.531101
vt 0.409861 0.531101
vt 0.410212 0.531030
vt 0.410220 0.531101
vt 0.410415 0.531030
vt 0.410415 0.531101
vt 0.410617 0.531030
vt 0.410609 0.531101
vt 0.410812 0.531030
vt 0.410797 0.531101
vt 0.410991 0.531030
vt 0.410969 0.531101
vt 0.411148 0.531030
vt 0.411120 0.531101
vt 0.411277 0.531030
vt 0.411244 0.531101
vt 0.411277 0.531210
vt 0.411098 0.531210
vt 0.411083 0.531138
vt 0.411255 0.531138
vt 0.410903 0.531210
vt 0.410896 0.531138
vt 0.410701 0.531210
vt 0.410701 0.531138
vt 0.410498 0.531210
vt 0.410506 0.531138
vt 0.410304 0.531210
vt 0.410319 0.531138
vt 0.410125 0.531210
vt 0.410147 0.531138
vt 0.409967 0.531210
vt 0.409996 0.531138
vt 0.409838 0.531210
vt 0.409871 0.531138
vt 0.410991 0.530992
vt 0.410812 0.530992
vt 0.410797 0.530921
vt 0.410969 0.530921
vt 0.410617 0.530992
vt 0.410609 0.530921
vt 0.410415 0.530992
vt 0.410415 0.530921
vt 0.410212 0.530992
vt 0.410220 0.530921
vt 0.410018 0.530992
vt 0.410033 0.530921
vt 0.409838 0.530992
vt 0.409861 0.530921
vt 0.411564 0.531319
vt 0.411435 0.531319
vt 0.411406 0.531247
vt 0.411530 0.531247
vt 0.411277 0.531319
vt 0.411255 0.531247
vt 0.411098 0.531319
vt 0.411083 0.531247
vt 0.410903 0.531319
vt 0.410896 0.531247
vt 0.410701 0.531319
vt 0.410701 0.531247
vt 0.409481 0.532117
vt 0.409644 0.532068
vt 0.409813 0.532919
vt 0.409331 0.532197
vt 0.409200 0.532305
vt 0.409092 0.532437
vt 0.409012 0.532587
vt 0.408962 0.532750
vt 0.408946 0.532919
vt 0.408962 0.533088
vt 0.409012 0.533251
vt 0.409092 0.533401
vt 0.409200 0.533532
vt 0.409331 0.533640
vt 0.409481 0.533720
vt 0.409644 0.533770
vt 0.409813 0.533787
vt 0.409983 0.533770
vt 0.410145 0.533720
vt 0.410295 0.533640
vt 0.410427 0.533532
vt 0.410535 0.533401
vt 0.410615 0.533251
vt 0.410664 0.533088
vt 0.410681 0.532919
vt 0.410664 0.532750
vt 0.410615 0.532587
vt 0.410535 0.532437
vt 0.410427 0.532305
vt 0.410295 0.532197
vt 0.410145 0.532117
vt 0.409983 0.532068
vt 0.409813 0.532051
vt 0.410677 0.532237
vt 0.410725 0.532081
vt 0.411494 0.532400
vt 0.410802 0.531937
vt 0.410905 0.531810
vt 0.411032 0.531707
vt 0.411176 0.531630
vt 0.411332 0.531582
vt 0.411494 0.531566
vt 0.411657 0.531582
vt 0.411813 0.531630
vt 0.411957 0.531707
vt 0.412084 0.531810
vt 0.412187 0.531937
vt 0.412264 0.532081
vt 0.412312 0.532237
vt 0.412328 0.532400
vt 0.412312 0.532562
vt 0.412264 0.532719
vt 0.412187 0.532863
vt 0.412084 0.532989
vt 0.411957 0.533092
vt 0.411813 0.533169
vt 0.411657 0.533217
vt 0.411494 0.533233
vt 0.411332 0.533217
vt 0.411176 0.533169
vt 0.411032 0.533092
vt 0.410905 0.532989
vt 0.410802 0.532863
vt 0.410725 0.532719
vt 0.410677 0.532562
vt 0.410661 0.532400
vn 0.8575 -0.4854 -0.1706
vn 0.8078 -0.4854 -0.3346
vn 0.4900 0.8478 -0.2030
vn 0.5202 0.8478 -0.1035
vn 0.7270 -0.4854 -0.4857
vn 0.4410 0.8478 -0.2946
vn 0.6182 -0.4854 -0.6182
vn 0.3750 0.8478 -0.3750
vn 0.4857 -0.4854 -0.7270
vn 0.2946 0.8478 -0.4410
vn 0.3346 -0.4854 -0.8078
vn 0.2030 0.8478 -0.4900
vn 0.1706 -0.4854 -0.8575
vn 0.1035 0.8478 -0.5202
vn 0.0000 -0.4854 -0.8743
vn 0.0000 0.8478 -0.5303
vn -0.1706 -0.4854 -0.8575
vn -0.1035 0.8478 -0.5202
vn -0.3346 -0.4854 -0.8078
vn -0.2030 0.8478 -0.4900
vn -0.4857 -0.4854 -0.7270
vn -0.2946 0.8478 -0.4410
vn -0.6182 -0.4854 -0.6182
vn -0.3750 0.8478 -0.3750
vn -0.7270 -0.4854 -0.4857
vn -0.4410 0.8478 -0.2946
vn -0.8078 -0.4854 -0.3346
vn -0.4900 0.8478 -0.2030
vn -0.8575 -0.4854 -0.1706
vn -0.5202 0.8478 -0.1035
vn -0.8743 -0.4854 -0.0000
vn -0.5303 0.8478 -0.0000
vn -0.8575 -0.4854 0.1706
vn -0.5202 0.8478 0.1035
vn -0.8078 -0.4854 0.3346
vn -0.4900 0.8478 0.2030
vn -0.7270 -0.4854 0.4857
vn -0.4410 0.8478 0.2946
vn -0.6182 -0.4854 0.6182
vn -0.3750 0.8478 0.3750
vn -0.4857 -0.4854 0.7270
vn -0.2946 0.8478 0.4410
vn -0.3346 -0.4854 0.8078
vn -0.2030 0.8478 0.4900
vn -0.1706 -0.4854 0.8575
vn -0.1035 0.8478 0.5202
vn -0.0000 -0.4854 0.8743
vn -0.0000 0.8478 0.5303
vn 0.1706 -0.4854 0.8575
vn 0.1035 0.8478 0.5202
vn 0.3346 -0.4854 0.8078
vn 0.2030 0.8478 0.4900
vn 0.4857 -0.4854 0.7270
vn 0.2946 0.8478 0.4410
vn 0.6182 -0.4854 0.6182
vn 0.3750 0.8478 0.3750
vn 0.7270 -0.4854 0.4857
vn 0.4410 0.8478 0.2946
vn 0.8078 -0.4854 0.3346
vn 0.4900 0.8478 0.2030
vn 0.8575 -0.4854 0.1706
vn 0.5202 0.8478 0.1035
vn 0.8743 -0.4854 -0.0000
vn 0.5303 0.8478 -0.0000
vn -0.0000 -1.0000 -0.0000
vn -0.0000 1.0000 0.0000
s 1
f 1/1/1 2/2/2 3/3/3 4/4/4
f 2/2/2 5/5/5 6/6/6 3/3/3
f 5/5/5 7/7/7 8/8/8 6/6/6
f 7/7/7 9/9/9 10/10/10 8/8/8
f 9/11/9 11/12/11 12/13/12 10/14/10
f 11/12/11 13/15/13 14/16/14 12/13/12
f 13/15/13 15/17/15 16/18/16 14/16/14
f 15/17/15 17/19/17 18/20/18 16/18/16
f 17/19/17 19/21/19 20/22/20 18/20/18
f 19/21/19 21/23/21 22/24/22 20/22/20
f 21/23/21 23/25/23 24/26/24 22/24/22
f 23/25/23 25/27/25 26/28/26 24/26/24
f 25/29/25 27/30/27 28/31/28 26/32/26
f 27/30/27 29/33/29 30/34/30 28/31/28
f 29/33/29 31/35/31 32/36/32 30/34/30
f 31/35/31 33/37/33 34/38/34 32/36/32
f 33/37/33 35/39/35 36/40/36 34/38/34
f 35/39/35 37/41/37 38/42/38 36/40/36
f 37/41/37 39/43/39 40/44/40 38/42/38
f 39/43/39 41/45/41 42/46/42 40/44/40
f 41/47/41 43/48/43 44/49/44 42/50/42
f 43/48/43 45/51/45 46/52/46 44/49/44
f 45/51/45 47/53/47 48/54/48 46/52/46
f 47/53/47 49/55/49 50/56/50 48/54/48
f 49/55/49 51/57/51 52/58/52 50/56/50
f 51/57/51 53/59/53 54/60/54 52/58/52
f 53/61/53 55/62/55 56/63/56 54/64/54
f 55/62/55 57/65/57 58/66/58 56/63/56
f 57/65/57 59/67/59 60/68/60 58/66/58
f 59/67/59 61/69/61 62/70/62 60/68/60
f 61/69/61 63/71/63 64/72/64 62/70/62
f 63/71/63 1/1/1 4/4/4 64/72/64
f 2/73/2 1/74/1 65/75/65
f 5/76/5 2/73/2 65/75/65
f 7/77/7 5/76/5 65/75/65
f 9/78/9 7/77/7 65/75/65
f 11/79/11 9/78/9 65/75/65
f 13/80/13 11/79/11 65/75/65
f 15/81/15 13/80/13 65/75/65
f 17/82/17 15/81/15 65/75/65
f 19/83/19 17/82/17 65/75/65
f 21/84/21 19/83/19 65/75/65
f 23/85/23 21/84/21 65/75/65
f 25/86/25 23/85/23 65/75/65
f 27/87/27 25/86/25 65/75/65
f 29/88/29 27/87/27 65/75/65
f 31/89/31 29/88/29 65/75/65
f 33/90/33 31/89/31 65/75/65
f 35/91/35 33/90/33 65/75/65
f 37/92/37 35/91/35 65/75/65
f 39/93/39 37/92/37 65/75/65
f 41/94/41 39/93/39 65/75/65
f 43/95/43 41/94/41 65/75/65
f 45/96/45 43/95/43 65/75/65
f 47/97/47 45/96/45 65/75/65
f 49/98/49 47/97/47 65/75/65
f 51/99/51 49/98/49 65/75/65
f 53/100/53 51/99/51 65/75/65
f 55/101/55 53/100/53 65/75/65
f 57/102/57 55/101/55 65/75/65
f 59/103/59 57/102/57 65/75/65
f 61/104/61 59/103/59 65/75/65
f 63/105/63 61/104/61 65/75/65
f 1/74/1 63/105/63 65/75/65
f 4/106/4 3/107/3 66/108/66
f 3/107/3 6/109/6 66/108/66
f 6/109/6 8/110/8 66/108/66
f 8/110/8 10/111/10 66/108/66
f 10/111/10 12/112/12 66/108/66
f 12/112/12 14/113/14 66/108/66
f 14/113/14 16/114/16 66/108/66
f 16/114/16 18/115/18 66/108/66
f 18/115/18 20/116/20 66/108/66
f 20/116/20 22/117/22 66/108/66
f 22/117/22 24/118/24 66/108/66
f 24/118/24 26/119/26 66/108/66
f 26/119/26 28/120/28 66/108/66
f 28/120/28 30/121/30 66/108/66
f 30/121/30 32/122/32 66/108/66
f 32/122/32 34/123/34 66/108/66
f 34/123/34 36/124/36 66/108/66
f 36/124/36 38/125/38 66/108/66
f 38/125/38 40/126/40 66/108/66
f 40/126/40 42/127/42 66/108/66
f 42/127/42 44/128/44 66/108/66
f 44/128/44 46/129/46 66/108/66
f 46/129/46 48/130/48 66/108/66
f 48/130/48 50/131/50 66/108/66
f 50/131/50 52/132/52 66/108/66
f 52/132/52 54/133/54 66/108/66
f 54/133/54 56/134/56 66/108/66
f 56/134/56 58/135/58 66/108/66
f 58/135/58 60/136/60 66/108/66
f 60/136/60 62/137/62 66/108/66
f 62/137/62 64/138/64 66/108/66
f 64/138/64 4/106/4 66/108/66
