v -0.203599 0.130211 0.655822
v -0.063350 0.130211 0.684481
v 0.011983 0.130211 -0.041917
v -0.335563 0.130211 0.600349
v -0.454171 0.130211 0.520194
v -0.554864 0.130211 0.418438
v -0.633776 0.130211 0.298990
v -0.687870 0.130211 0.166442
v -0.715069 0.130211 0.025886
v -0.714329 0.130211 -0.117275
v -0.685676 0.130211 -0.257541
v -0.630212 0.130211 -0.389520
v -0.550070 0.130211 -0.508140
v -0.448329 0.130211 -0.608844
v -0.328898 0.130211 -0.687762
v -0.196366 0.130211 -0.741860
v -0.055829 0.130211 -0.769060
v 0.087315 0.130211 -0.768315
v 0.227564 0.130211 -0.739656
v 0.359528 0.130211 -0.684183
v 0.478136 0.130211 -0.604028
v 0.578831 0.130211 -0.502271
v 0.657741 0.130211 -0.382823
v 0.711835 0.130211 -0.250274
v 0.739034 0.130211 -0.109718
v 0.738293 0.130211 0.033443
v 0.709640 0.130211 0.173708
v 0.654178 0.130211 0.305686
v 0.574035 0.130211 0.424308
v 0.472293 0.130211 0.525012
v 0.352862 0.130211 0.603929
v 0.079794 0.130211 0.685226
v 0.220330 0.130211 0.658026
v -0.484384 0.000000 -0.653250
v -0.355597 0.000000 -0.738349
v 0.011983 0.000000 -0.041917
v -0.220485 -0.000000 0.710474
v -0.362785 -0.000000 0.650656
v 0.795982 0.000000 -0.115029
v 0.795184 -0.000000 0.039345
v -0.740321 0.000000 -0.274430
v -0.680515 0.000000 -0.416747
v 0.623230 0.000000 -0.538329
v 0.708321 0.000000 -0.409526
v -0.742687 -0.000000 0.182762
v -0.772018 -0.000000 0.031197
v 0.085105 -0.000000 0.742181
v -0.069250 -0.000000 0.741378
v 0.244450 0.000000 -0.794308
v 0.386750 0.000000 -0.734490
v 0.508348 -0.000000 0.569418
v 0.379561 -0.000000 0.654517
v -0.212685 0.000000 -0.796684
v -0.061140 0.000000 -0.826015
v -0.490683 -0.000000 0.564224
v -0.599265 -0.000000 0.454497
v 0.764287 -0.000000 0.190597
v 0.704479 -0.000000 0.332913
v -0.594095 0.000000 -0.544659
v 0.766653 0.000000 -0.266595
v -0.771219 0.000000 -0.123178
v 0.514649 0.000000 -0.648056
v 0.236650 -0.000000 0.712852
v -0.684356 -0.000000 0.325692
v 0.093216 0.000000 -0.825212
v 0.618059 -0.000000 0.460826
v 0.223260 0.121883 0.667866
v 0.080747 0.121883 0.695448
v -0.562833 0.121883 0.424909
v -0.642853 0.121883 0.303782
v -0.056782 0.121883 -0.779281
v 0.088374 0.121883 -0.778526
v 0.357654 0.121883 0.613008
v 0.364414 0.121883 -0.693211
v 0.484690 0.121883 -0.611929
v -0.064409 0.121883 0.694693
v -0.206629 0.121883 0.665631
v -0.725289 0.121883 0.026839
v -0.724538 0.121883 -0.118335
v 0.666818 0.121883 -0.387615
v 0.721673 0.121883 -0.253203
v -0.639240 0.121883 -0.394406
v -0.557971 0.121883 -0.514695
v 0.748504 0.121883 0.034502
v 0.719448 0.121883 0.176739
v -0.340449 0.121883 0.609378
v -0.460723 0.121883 0.528097
v -0.333689 0.121883 -0.696841
v -0.199295 0.121883 -0.751699
v 0.581935 0.121883 0.430861
v 0.478764 0.121883 0.532981
v 0.230594 0.121883 -0.749465
v -0.697708 0.121883 0.169371
v 0.586799 0.121883 -0.508743
v -0.695483 0.121883 -0.260571
v 0.749255 0.121883 -0.110672
v -0.454800 0.121883 -0.616814
v 0.663205 0.121883 0.310573
vt 0.025355 0.711411
vt 0.025381 0.711411
vt 0.025381 0.711542
vt 0.025329 0.711437
vt 0.025302 0.711437
vt 0.025302 0.711463
vt 0.025276 0.711490
vt 0.025276 0.711516
vt 0.025276 0.711542
vt 0.025276 0.711569
vt 0.025276 0.711595
vt 0.025276 0.711621
vt 0.025302 0.711621
vt 0.025302 0.711648
vt 0.025329 0.711674
vt 0.025355 0.711674
vt 0.025381 0.711674
vt 0.025381 0.711674
vt 0.025408 0.711674
vt 0.025434 0.711674
vt 0.025460 0.711648
vt 0.025460 0.711621
vt 0.025487 0.711621
vt 0.025487 0.711595
vt 0.025487 0.711569
vt 0.025487 0.711542
vt 0.025487 0.711516
vt 0.025487 0.711490
vt 0.025460 0.711463
vt 0.025460 0.711437
vt 0.025434 0.711437
vt 0.025381 0.711411
vt 0.025408 0.711411
vt 0.025247 0.711441
vt 0.025247 0.711441
vt 0.025244 0.711435
vt 0.025247 0.711430
vt 0.025248 0.711431
vt 0.025239 0.711434
vt 0.025240 0.711433
vt 0.025249 0.711438
vt 0.025249 0.711439
vt 0.025240 0.711438
vt 0.025240 0.711437
vt 0.025250 0.711434
vt 0.025250 0.711435
vt 0.025245 0.711429
vt 0.025247 0.711430
vt 0.025242 0.711441
vt 0.025241 0.711440
vt 0.025242 0.711430
vt 0.025243 0.711430
vt 0.025245 0.711441
vt 0.025244 0.711441
vt 0.025249 0.711431
vt 0.025249 0.711432
vt 0.025240 0.711432
vt 0.025240 0.711431
vt 0.025248 0.711440
vt 0.025239 0.711435
vt 0.025250 0.711437
vt 0.025240 0.711439
vt 0.025244 0.711429
vt 0.025250 0.711433
vt 0.025243 0.711441
vt 0.025241 0.711431
vt 0.025249 0.711427
vt 0.025249 0.711425
vt 0.025235 0.711429
vt 0.025235 0.711428
vt 0.025234 0.711427
vt 0.025234 0.711425
vt 0.025249 0.711428
vt 0.025234 0.711423
vt 0.025233 0.711422
vt 0.025249 0.711424
vt 0.025249 0.711423
vt 0.025237 0.711425
vt 0.025237 0.711424
vt 0.025238 0.711428
vt 0.025238 0.711427
vt 0.025235 0.711422
vt 0.025235 0.711422
vt 0.025238 0.711424
vt 0.025238 0.711423
vt 0.025249 0.711422
vt 0.025249 0.711422
vt 0.025234 0.711429
vt 0.025234 0.711428
vt 0.025238 0.711422
vt 0.025238 0.711421
vt 0.025234 0.711424
vt 0.025237 0.711427
vt 0.025238 0.711429
vt 0.025237 0.711423
vt 0.025238 0.711425
vt 0.025235 0.711421
vt 0.025238 0.711422
vt 0.025249 0.711425
vt 0.025249 0.711424
vt 0.025249 0.711423
vt 0.025249 0.711422
vt 0.025249 0.711422
vt 0.025235 0.711429
vt 0.025235 0.711428
vt 0.025237 0.711427
vt 0.025237 0.711425
vt 0.025237 0.711424
vt 0.025237 0.711423
vt 0.025235 0.711423
vt 0.025235 0.711422
vt 0.025235 0.711421
vt 0.025234 0.711429
vt 0.025234 0.711428
vt 0.025234 0.711427
vt 0.025234 0.711425
vt 0.025234 0.711424
vt 0.025234 0.711423
vt 0.025233 0.711422
vt 0.025238 0.711429
vt 0.025238 0.711428
vt 0.025238 0.711427
vt 0.025238 0.711425
vt 0.025238 0.711424
vt 0.025238 0.711423
vt 0.025238 0.711423
vt 0.025238 0.711422
vt 0.025238 0.711421
vt 0.025249 0.711428
vt 0.025249 0.711427
vn -0.0000 1.0000 0.0000
vn -0.0000 -1.0000 -0.0000
vn 0.2451 -0.5126 0.8229
vn 0.2324 0.5803 0.7805
vn 0.0756 0.5803 0.8109
vn 0.0797 -0.5126 0.8549
vn -0.6665 -0.5127 0.5412
vn -0.6322 0.5803 0.5133
vn -0.7202 0.5803 0.3801
vn -0.7593 -0.5127 0.4007
vn -0.0797 -0.5126 -0.8549
vn -0.0756 0.5803 -0.8109
vn 0.0840 0.5803 -0.8100
vn 0.0887 -0.5126 -0.8540
vn 0.4008 -0.5126 0.7593
vn 0.3802 0.5803 0.7202
vn 0.4088 -0.5127 -0.7550
vn 0.3877 0.5803 -0.7162
vn 0.5199 0.5803 -0.6268
vn 0.5482 -0.5127 -0.6608
vn -0.0887 -0.5126 0.8540
vn -0.0840 0.5803 0.8100
vn -0.2405 0.5803 0.7781
vn -0.2535 -0.5127 0.8203
vn -0.8549 -0.5127 0.0797
vn -0.8109 0.5803 0.0756
vn -0.8101 0.5803 -0.0840
vn -0.8540 -0.5127 -0.0885
vn 0.7593 -0.5127 -0.4008
vn 0.7202 0.5803 -0.3801
vn 0.7806 0.5803 -0.2323
vn 0.8229 -0.5127 -0.2448
vn -0.7551 -0.5127 -0.4086
vn -0.7163 0.5803 -0.3876
vn -0.6269 0.5803 -0.5199
vn -0.6609 -0.5127 -0.5481
vn 0.8540 -0.5127 0.0884
vn 0.8101 0.5803 0.0840
vn 0.7781 0.5803 0.2404
vn 0.8203 -0.5127 0.2534
vn -0.4088 -0.5127 0.7550
vn -0.3877 0.5803 0.7162
vn -0.5199 0.5803 0.6268
vn -0.5482 -0.5127 0.6608
vn -0.4008 -0.5127 -0.7593
vn -0.3802 0.5803 -0.7202
vn -0.2324 0.5803 -0.7805
vn -0.2451 -0.5126 -0.8229
vn 0.6609 -0.5127 0.5481
vn 0.6269 0.5803 0.5199
vn 0.5134 0.5803 0.6322
vn 0.5413 -0.5127 0.6664
vn 0.2405 0.5803 -0.7781
vn 0.2535 -0.5127 -0.8203
vn -0.7806 0.5803 0.2323
vn -0.8229 -0.5127 0.2448
vn 0.6322 0.5803 -0.5133
vn 0.6665 -0.5127 -0.5412
vn -0.7781 0.5803 -0.2404
vn -0.8203 -0.5127 -0.2534
vn 0.8109 0.5803 -0.0756
vn 0.8549 -0.5127 -0.0797
vn -0.5134 0.5803 -0.6322
vn -0.5413 -0.5127 -0.6664
vn 0.7163 0.5803 0.3876
vn 0.7551 -0.5127 0.4086
vn 0.0282 0.9528 0.3024
vn -0.0313 0.9528 0.3020
vn -0.0896 0.9528 0.2901
vn -0.1445 0.9528 0.2670
vn -0.1938 0.9528 0.2337
vn -0.2357 0.9528 0.1914
vn -0.2686 0.9528 0.1418
vn -0.2910 0.9528 0.0866
vn -0.3023 0.9528 0.0282
vn -0.3020 0.9528 -0.0313
vn -0.2902 0.9528 -0.0897
vn -0.2671 0.9528 -0.1445
vn -0.2337 0.9528 -0.1938
vn -0.1914 0.9528 -0.2357
vn -0.1417 0.9528 -0.2685
vn -0.0866 0.9528 -0.2910
vn -0.0282 0.9528 -0.3024
vn 0.0313 0.9528 -0.3020
vn 0.0896 0.9528 -0.2901
vn 0.1445 0.9528 -0.2671
vn 0.1938 0.9528 -0.2337
vn 0.2357 0.9528 -0.1914
vn 0.2686 0.9528 -0.1417
vn 0.2910 0.9528 -0.0866
vn 0.3024 0.9528 -0.0282
vn 0.3020 0.9528 0.0313
vn 0.2901 0.9528 0.0897
vn 0.2671 0.9528 0.1446
vn 0.2337 0.9528 0.1938
vn 0.1914 0.9528 0.2357
vn 0.1417 0.9528 0.2686
vn 0.0866 0.9528 0.2910
f 1/1/1 2/2/1 3/3/1
f 4/4/1 1/1/1 3/3/1
f 5/5/1 4/4/1 3/3/1
f 6/6/1 5/5/1 3/3/1
f 7/7/1 6/6/1 3/3/1
f 8/8/1 7/7/1 3/3/1
f 9/9/1 8/8/1 3/3/1
f 10/10/1 9/9/1 3/3/1
f 11/11/1 10/10/1 3/3/1
f 12/12/1 11/11/1 3/3/1
f 13/13/1 12/12/1 3/3/1
f 14/14/1 13/13/1 3/3/1
f 15/15/1 14/14/1 3/3/1
f 16/16/1 15/15/1 3/3/1
f 17/17/1 16/16/1 3/3/1
f 18/18/1 17/17/1 3/3/1
f 19/19/1 18/18/1 3/3/1
f 20/20/1 19/19/1 3/3/1
f 21/21/1 20/20/1 3/3/1
f 22/22/1 21/21/1 3/3/1
f 23/23/1 22/22/1 3/3/1
f 24/24/1 23/23/1 3/3/1
f 25/25/1 24/24/1 3/3/1
f 26/26/1 25/25/1 3/3/1
f 27/27/1 26/26/1 3/3/1
f 28/28/1 27/27/1 3/3/1
f 29/29/1 28/28/1 3/3/1
f 30/30/1 29/29/1 3/3/1
f 31/31/1 30/30/1 3/3/1
f 32/32/1 33/33/1 3/3/1
f 33/33/1 31/31/1 3/3/1
f 2/2/1 32/32/1 3/3/1
f 34/34/2 35/35/2 36/36/2
f 37/37/2 38/38/2 36/36/2
f 39/39/2 40/40/2 36/36/2
f 41/41/2 42/42/2 36/36/2
f 43/43/2 44/44/2 36/36/2
f 45/45/2 46/46/2 36/36/2
f 47/47/2 48/48/2 36/36/2
f 49/49/2 50/50/2 36/36/2
f 51/51/2 52/52/2 36/36/2
f 53/53/2 54/54/2 36/36/2
f 55/55/2 56/56/2 36/36/2
f 57/57/2 58/58/2 36/36/2
f 59/59/2 34/34/2 36/36/2
f 48/48/2 37/37/2 36/36/2
f 60/60/2 39/39/2 36/36/2
f 61/61/2 41/41/2 36/36/2
f 62/62/2 43/43/2 36/36/2
f 63/63/2 47/47/2 36/36/2
f 64/64/2 45/45/2 36/36/2
f 65/65/2 49/49/2 36/36/2
f 66/66/2 51/51/2 36/36/2
f 35/35/2 53/53/2 36/36/2
f 38/38/2 55/55/2 36/36/2
f 40/40/2 57/57/2 36/36/2
f 42/42/2 59/59/2 36/36/2
f 44/44/2 60/60/2 36/36/2
f 46/46/2 61/61/2 36/36/2
f 50/50/2 62/62/2 36/36/2
f 52/52/2 63/63/2 36/36/2
f 56/56/2 64/64/2 36/36/2
f 54/54/2 65/65/2 36/36/2
f 58/58/2 66/66/2 36/36/2
f 63/63/3 67/67/4 68/68/5 47/47/6
f 56/56/7 69/69/8 70/70/9 64/64/10
f 54/54/11 71/71/12 72/72/13 65/65/14
f 52/52/15 73/73/16 67/67/4 63/63/3
f 50/50/17 74/74/18 75/75/19 62/62/20
f 48/48/21 76/76/22 77/77/23 37/37/24
f 46/46/25 78/78/26 79/79/27 61/61/28
f 44/44/29 80/80/30 81/81/31 60/60/32
f 42/42/33 82/82/34 83/83/35 59/59/36
f 40/40/37 84/84/38 85/85/39 57/57/40
f 38/38/41 86/86/42 87/87/43 55/55/44
f 35/35/45 88/88/46 89/89/47 53/53/48
f 66/66/49 90/90/50 91/91/51 51/51/52
f 65/65/14 72/72/13 92/92/53 49/49/54
f 64/64/10 70/70/9 93/93/55 45/45/56
f 62/62/20 75/75/19 94/94/57 43/43/58
f 61/61/28 79/79/27 95/95/59 41/41/60
f 60/60/32 81/81/31 96/96/61 39/39/62
f 59/59/36 83/83/35 97/97/63 34/34/64
f 57/57/40 85/85/39 98/98/65 58/58/66
f 55/55/44 87/87/43 69/69/8 56/56/7
f 53/53/48 89/89/47 71/71/12 54/54/11
f 51/51/52 91/91/51 73/73/16 52/52/15
f 49/49/54 92/92/53 74/74/18 50/50/17
f 45/45/56 93/93/55 78/78/26 46/46/25
f 43/43/58 94/94/57 80/80/30 44/44/29
f 41/41/60 95/95/59 82/82/34 42/42/33
f 58/58/66 98/98/65 90/90/50 66/66/49
f 34/34/64 97/97/63 88/88/46 35/35/45
f 37/37/24 77/77/23 86/86/42 38/38/41
f 39/39/62 96/96/61 84/84/38 40/40/37
f 76/76/22 68/68/5 32/99/67 2/100/68
f 77/77/23 76/76/22 2/100/68 1/101/69
f 86/86/42 77/77/23 1/101/69 4/102/70
f 87/87/43 86/86/42 4/102/70 5/103/71
f 69/69/8 87/87/43 5/103/71 6/104/72
f 70/70/9 69/69/8 6/104/72 7/105/73
f 93/93/55 70/70/9 7/105/73 8/106/74
f 78/78/26 93/93/55 8/106/74 9/107/75
f 79/79/27 78/78/26 9/107/75 10/108/76
f 95/95/59 79/79/27 10/108/76 11/109/77
f 82/82/34 95/95/59 11/109/77 12/110/78
f 83/83/35 82/82/34 12/110/78 13/111/79
f 97/97/63 83/83/35 13/111/79 14/112/80
f 88/88/46 97/97/63 14/112/80 15/113/81
f 89/89/47 88/88/46 15/113/81 16/114/82
f 71/71/12 89/89/47 16/114/82 17/115/83
f 72/72/13 71/71/12 17/115/83 18/116/84
f 92/92/53 72/72/13 18/116/84 19/117/85
f 74/74/18 92/92/53 19/117/85 20/118/86
f 75/75/19 74/74/18 20/118/86 21/119/87
f 94/94/57 75/75/19 21/119/87 22/120/88
f 80/80/30 94/94/57 22/120/88 23/121/89
f 81/81/31 80/80/30 23/121/89 24/122/90
f 96/96/61 81/81/31 24/122/90 25/123/91
f 84/84/38 96/96/61 25/123/91 26/124/92
f 85/85/39 84/84/38 26/124/92 27/125/93
f 98/98/65 85/85/39 27/125/93 28/126/94
f 90/90/50 98/98/65 28/126/94 29/127/95
f 91/91/51 90/90/50 29/127/95 30/128/96
f 73/73/16 91/91/51 30/128/96 31/129/97
f 67/67/4 73/73/16 31/129/97 33/130/98
f 68/68/5 67/67/4 33/130/98 32/99/67
f 47/47/6 68/68/5 76/76/22 48/48/21
