v -1.399700 0.000000 0.000000
v -1.331200 -0.000000 0.432500
v -1.264300 0.140000 0.410800
v -1.329400 0.140000 0.000000
v -1.132400 -0.000000 0.822700
v -1.075500 0.140000 0.781400
v -0.822700 -0.000000 1.132400
v -0.781400 0.140000 1.075500
v -0.432500 -0.000000 1.331200
v -0.410800 0.140000 1.264300
v 0.000000 -0.000000 1.399700
v 0.000000 0.140000 1.329400
v 0.432500 -0.000000 1.331200
v 0.410800 0.140000 1.264300
v 0.822700 -0.000000 1.132400
v 0.781400 0.140000 1.075500
v 1.132400 -0.000000 0.822700
v 1.075500 0.140000 0.781400
v 1.331200 -0.000000 0.432500
v 1.264300 0.140000 0.410800
v 1.399700 0.000000 0.000000
v 1.329400 0.140000 0.000000
v 1.331200 0.000000 -0.432500
v 1.264300 0.140000 -0.410800
v 1.132400 0.000000 -0.822700
v 1.075500 0.140000 -0.781400
v 0.822700 0.000000 -1.132400
v 0.781400 0.140000 -1.075500
v 0.432500 0.000000 -1.331200
v 0.410800 0.140000 -1.264300
v 0.000000 0.000000 -1.399700
v 0.000000 0.140000 -1.329400
v -0.432500 0.000000 -1.331200
v -0.410800 0.140000 -1.264300
v -0.822700 0.000000 -1.132400
v -0.781400 0.140000 -1.075500
v -1.132400 0.000000 -0.822700
v -1.075500 0.140000 -0.781400
v -1.331200 0.000000 -0.432500
v -1.264300 0.140000 -0.410800
vt 0.577869 0.005069
vt 0.577873 0.005044
vt 0.577877 0.005046
vt 0.577873 0.005069
vt 0.577885 0.005022
vt 0.577888 0.005024
vt 0.577902 0.005004
vt 0.577905 0.005008
vt 0.577925 0.004993
vt 0.577926 0.004997
vt 0.577950 0.004989
vt 0.577950 0.004993
vt 0.577975 0.004993
vt 0.577973 0.004997
vt 0.577997 0.005004
vt 0.577995 0.005008
vt 0.578015 0.005022
vt 0.578012 0.005024
vt 0.578027 0.005044
vt 0.578023 0.005046
vt 0.578030 0.005069
vt 0.578027 0.005069
vt 0.578027 0.005094
vt 0.578023 0.005093
vt 0.578015 0.005117
vt 0.578012 0.005114
vt 0.577997 0.005135
vt 0.577995 0.005131
vt 0.577975 0.005146
vt 0.577973 0.005142
vt 0.577950 0.005150
vt 0.577950 0.005146
vt 0.577925 0.005146
vt 0.577926 0.005142
vt 0.577902 0.005135
vt 0.577905 0.005131
vt 0.577885 0.005117
vt 0.577888 0.005114
vt 0.577873 0.005094
vt 0.577877 0.005093
vt 0.578017 0.005148
vt 0.577898 0.005128
vt 0.577778 0.005148
vt 0.576177 0.003806
vt 0.576309 0.003546
vt 0.576518 0.003342
vt 0.576177 0.004376
vt 0.576773 0.003210
vt 0.577063 0.003163
vt 0.577608 0.003342
vt 0.577348 0.003210
vt 0.577812 0.003546
vt 0.577944 0.003806
vt 0.577944 0.004376
vt 0.577991 0.004091
vt 0.577812 0.004636
vt 0.577608 0.004841
vt 0.577063 0.005019
vt 0.577348 0.004973
vt 0.576773 0.004973
vt 0.576518 0.004841
vt 0.577020 0.005014
vt 0.576882 0.004878
vt 0.576795 0.004706
vt 0.576135 0.004091
vn -0.8716 -0.4903 -0.0000
vn -0.8289 -0.4903 0.2693
vn -0.5335 0.8279 0.1733
vn -0.5609 0.8279 0.0000
vn -0.7051 -0.4903 0.5123
vn -0.4538 0.8279 0.3297
vn -0.5123 -0.4903 0.7051
vn -0.3297 0.8279 0.4538
vn -0.2693 -0.4903 0.8289
vn -0.1733 0.8279 0.5335
vn 0.0000 -0.4903 0.8716
vn 0.0000 0.8279 0.5609
vn 0.2693 -0.4903 0.8289
vn 0.1733 0.8279 0.5335
vn 0.5123 -0.4903 0.7051
vn 0.3297 0.8279 0.4538
vn 0.7051 -0.4903 0.5123
vn 0.4538 0.8279 0.3297
vn 0.8289 -0.4903 0.2693
vn 0.5335 0.8279 0.1733
vn 0.8716 -0.4903 -0.0000
vn 0.5609 0.8279 0.0000
vn 0.8289 -0.4903 -0.2693
vn 0.5335 0.8279 -0.1733
vn 0.7051 -0.4903 -0.5123
vn 0.4538 0.8279 -0.3297
vn 0.5123 -0.4903 -0.7051
vn 0.3297 0.8279 -0.4538
vn 0.2693 -0.4903 -0.8289
vn 0.1733 0.8279 -0.5335
vn 0.0000 -0.4903 -0.8716
vn -0.0000 0.8279 -0.5609
vn -0.2693 -0.4903 -0.8289
vn -0.1733 0.8279 -0.5335
vn -0.5123 -0.4903 -0.7051
vn -0.3297 0.8279 -0.4538
vn -0.7051 -0.4903 -0.5123
vn -0.4538 0.8279 -0.3297
vn -0.8289 -0.4903 -0.2693
vn -0.5335 0.8279 -0.1733
f 1/1/1 2/2/2 3/3/3 4/4/4
f 2/2/2 5/5/5 6/6/6 3/3/3
f 5/5/5 7/7/7 8/8/8 6/6/6
f 7/7/7 9/9/9 10/10/10 8/8/8
f 9/9/9 11/11/11 12/12/12 10/10/10
f 11/11/11 13/13/13 14/14/14 12/12/12
f 13/13/13 15/15/15 16/16/16 14/14/14
f 15/15/15 17/17/17 18/18/18 16/16/16
f 17/17/17 19/19/19 20/20/20 18/18/18
f 19/19/19 21/21/21 22/22/22 20/20/20
f 21/21/21 23/23/23 24/24/24 22/22/22
f 23/23/23 25/25/25 26/26/26 24/24/24
f 25/25/25 27/27/27 28/28/28 26/26/26
f 27/27/27 29/29/29 30/30/30 28/28/28
f 29/29/29 31/31/31 32/32/32 30/30/30
f 31/31/31 33/33/33 34/34/34 32/32/32
f 33/33/33 35/35/35 36/36/36 34/34/34
f 35/35/35 37/37/37 38/38/38 36/36/36
f 37/37/37 39/39/39 40/40/40 38/38/38
f 39/39/39 1/1/1 4/4/4 40/40/40
f 37/37/37 35/35/35 33/33/33 1/1/1
f 33/33/33 31/31/31 29/29/29 25/25/25
f 29/29/29 27/27/27 25/25/25
f 25/25/25 23/23/23 21/21/21 17/17/17
f 21/21/21 19/19/19 17/17/17
f 17/17/17 15/15/15 13/13/13 9/9/9
f 13/41/13 11/42/11 9/43/9
f 9/9/9 7/7/7 5/5/5 1/1/1
f 5/5/5 2/2/2 1/1/1
f 17/17/17 9/9/9 1/1/1 25/25/25
f 33/33/33 25/25/25 1/1/1
f 39/39/39 37/37/37 1/1/1
f 3/44/3 6/45/6 8/46/8 40/47/40
f 8/46/8 10/48/10 12/49/12 16/50/16
f 12/49/12 14/51/14 16/50/16
f 16/50/16 18/52/18 20/53/20 24/54/24
f 20/53/20 22/55/22 24/54/24
f 24/54/24 26/56/26 28/57/28 32/58/32
f 28/57/28 30/59/30 32/58/32
f 32/58/32 34/60/34 36/61/36 40/47/40
f 36/62/36 38/63/38 40/64/40
f 24/54/24 32/58/32 40/47/40 16/50/16
f 8/46/8 16/50/16 40/47/40
f 4/65/4 3/44/3 40/47/40
