v 0.631500 -0.000700 0.483800
v 0.559300 -0.000700 0.699200
v 0.462600 -0.000700 0.884000
v 0.345600 -0.000700 1.030100
v 0.213600 -0.000700 1.131300
v 0.072300 -0.000700 1.183000
v -0.072300 -0.000700 1.183000
v -0.213600 -0.000700 1.131300
v -0.345600 -0.000700 1.030100
v -0.462600 -0.000700 0.884000
v -0.559300 -0.000700 0.699200
v -0.631500 -0.000700 0.483800
v -0.676200 -0.000700 0.247300
v -0.691300 -0.000700 -0.000000
v -0.676200 -0.000700 -0.247300
v -0.631500 -0.000700 -0.483800
v -0.559300 -0.000700 -0.699200
v -0.462600 -0.000700 -0.884000
v -0.345600 -0.000700 -1.030100
v -0.213600 -0.000700 -1.131300
v -0.072300 -0.000700 -1.183000
v 0.072300 -0.000700 -1.183000
v 0.213600 -0.000700 -1.131300
v 0.345600 -0.000700 -1.030100
v 0.462600 -0.000700 -0.884000
v 0.559300 -0.000700 -0.699200
v 0.631500 -0.000700 -0.483800
v 0.676200 -0.000700 -0.247300
v 0.691300 -0.000700 -0.000000
v 0.676200 -0.000700 0.247300
v 0.649700 0.117400 -0.244500
v 0.664300 0.117400 0.000000
v 0.606800 0.117400 -0.478300
v 0.537400 0.117400 -0.691200
v 0.444500 0.117400 -0.873900
v 0.332100 0.117400 -1.018400
v 0.205300 0.117400 -1.118400
v 0.069400 0.117400 -1.169500
v -0.069400 0.117400 -1.169500
v -0.205300 0.117400 -1.118400
v -0.332100 0.117400 -1.018400
v -0.444500 0.117400 -0.873900
v -0.537400 0.117400 -0.691200
v -0.606800 0.117400 -0.478300
v -0.649700 0.117400 -0.244500
v -0.664300 0.117400 0.000000
v -0.649700 0.117400 0.244500
v -0.606800 0.117400 0.478300
v -0.537400 0.117400 0.691200
v -0.444500 0.117400 0.873900
v -0.332100 0.117400 1.018400
v -0.205300 0.117400 1.118400
v -0.069400 0.117400 1.169500
v 0.069400 0.117400 1.169500
v 0.205300 0.117400 1.118400
v 0.332100 0.117400 1.018400
v 0.444500 0.117400 0.873900
v 0.537400 0.117400 0.691200
v 0.606800 0.117400 0.478300
v 0.649700 0.117400 0.244500
vt 0.851700 0.121200
vt 0.846100 0.111400
vt 0.842500 0.100500
vt 0.841400 0.089200
vt 0.842500 0.077900
vt 0.846100 0.067100
vt 0.851700 0.057300
vt 0.859300 0.048800
vt 0.868500 0.042100
vt 0.878900 0.037500
vt 0.890000 0.035200
vt 0.901400 0.035200
vt 0.912500 0.037500
vt 0.922900 0.042100
vt 0.932100 0.048800
vt 0.939700 0.057300
vt 0.945400 0.067100
vt 0.948900 0.077900
vt 0.950100 0.089200
vt 0.948900 0.100500
vt 0.945400 0.111400
vt 0.939700 0.121200
vt 0.932100 0.129600
vt 0.922900 0.136300
vt 0.912500 0.140900
vt 0.901400 0.143300
vt 0.890000 0.143300
vt 0.878900 0.140900
vt 0.868500 0.136300
vt 0.859300 0.129600
vt 0.950100 0.089300
vt 0.948900 0.100600
vt 0.945300 0.099800
vt 0.946400 0.089300
vt 0.945400 0.111400
vt 0.942000 0.109900
vt 0.939700 0.121200
vt 0.936700 0.119100
vt 0.932100 0.129700
vt 0.929600 0.127000
vt 0.922900 0.136400
vt 0.921100 0.133200
vt 0.912500 0.141000
vt 0.911400 0.137500
vt 0.901400 0.143400
vt 0.901000 0.139700
vt 0.890000 0.143400
vt 0.890400 0.139700
vt 0.878900 0.141000
vt 0.880100 0.137500
vt 0.868500 0.136400
vt 0.870400 0.133200
vt 0.859300 0.129700
vt 0.861800 0.127000
vt 0.851700 0.121200
vt 0.854700 0.119100
vt 0.846100 0.111400
vt 0.849400 0.109900
vt 0.842500 0.100600
vt 0.846100 0.099800
vt 0.841400 0.089300
vt 0.845000 0.089300
vt 0.842500 0.078000
vt 0.846100 0.078700
vt 0.846100 0.067200
vt 0.849400 0.068700
vt 0.851700 0.057300
vt 0.854700 0.059500
vt 0.859300 0.048900
vt 0.861800 0.051600
vt 0.868500 0.042200
vt 0.870400 0.045400
vt 0.878900 0.037600
vt 0.880100 0.041100
vt 0.890000 0.035200
vt 0.890400 0.038900
vt 0.901400 0.035200
vt 0.901000 0.038900
vt 0.912500 0.037600
vt 0.911400 0.041100
vt 0.922900 0.042200
vt 0.921100 0.045400
vt 0.932100 0.048900
vt 0.929600 0.051600
vt 0.939700 0.057300
vt 0.936700 0.059500
vt 0.945400 0.067200
vt 0.942000 0.068700
vt 0.948900 0.078000
vt 0.945300 0.078700
vt 0.386800 0.973800
vt 0.300400 0.963400
vt 0.219200 0.941900
vt 0.146800 0.910200
vt 0.086300 0.869600
vt 0.040400 0.822000
vt 0.011000 0.769400
vt -0.000500 0.714200
vt 0.006400 0.658700
vt 0.031300 0.605400
vt 0.073200 0.556600
vt 0.130300 0.514400
vt 0.200000 0.480700
vt 0.279300 0.456900
vt 0.364700 0.444200
vt 0.452500 0.442900
vt 0.538900 0.453300
vt 0.620100 0.474900
vt 0.692500 0.506600
vt 0.753000 0.547200
vt 0.798900 0.594800
vt 0.828200 0.647300
vt 0.839700 0.702600
vt 0.832900 0.758100
vt 0.807900 0.811400
vt 0.766000 0.860200
vt 0.709000 0.902400
vt 0.639300 0.936100
vt 0.560000 0.959800
vt 0.474600 0.972600
vn -0.0000 -1.0000 -0.0000
vn 0.9872 0.1597 0.0000
vn 0.9672 0.1551 -0.2013
vn 0.9666 0.1550 -0.2042
vn 0.9074 0.1420 -0.3956
vn 0.9053 0.1416 -0.4006
vn 0.8087 0.1225 -0.5753
vn 0.8047 0.1218 -0.5811
vn 0.6736 0.0997 -0.7324
vn 0.6681 0.0988 -0.7375
vn 0.5065 0.0774 -0.8588
vn 0.5008 0.0768 -0.8622
vn 0.3144 0.0598 -0.9474
vn 0.3102 0.0594 -0.9488
vn 0.1066 0.0500 -0.9930
vn 0.1050 0.0500 -0.9932
vn -0.1066 0.0500 -0.9930
vn -0.1050 0.0500 -0.9932
vn -0.3144 0.0598 -0.9474
vn -0.3102 0.0594 -0.9488
vn -0.5065 0.0774 -0.8588
vn -0.5008 0.0768 -0.8622
vn -0.6736 0.0997 -0.7324
vn -0.6681 0.0988 -0.7375
vn -0.8087 0.1225 -0.5753
vn -0.8047 0.1218 -0.5811
vn -0.9074 0.1420 -0.3956
vn -0.9053 0.1416 -0.4006
vn -0.9672 0.1551 -0.2013
vn -0.9666 0.1550 -0.2042
vn -0.9872 0.1597 -0.0000
vn -0.9672 0.1551 0.2013
vn -0.9666 0.1550 0.2042
vn -0.9074 0.1420 0.3956
vn -0.9053 0.1416 0.4006
vn -0.8087 0.1225 0.5753
vn -0.8047 0.1218 0.5811
vn -0.6736 0.0997 0.7324
vn -0.6681 0.0988 0.7375
vn -0.5065 0.0774 0.8588
vn -0.5008 0.0768 0.8622
vn -0.3144 0.0598 0.9474
vn -0.3102 0.0595 0.9488
vn -0.1066 0.0500 0.9930
vn -0.1050 0.0500 0.9932
vn 0.1066 0.0500 0.9930
vn 0.1050 0.0500 0.9932
vn 0.3144 0.0598 0.9474
vn 0.3102 0.0595 0.9488
vn 0.5065 0.0774 0.8588
vn 0.5008 0.0768 0.8622
vn 0.6736 0.0997 0.7324
vn 0.6681 0.0988 0.7375
vn 0.8087 0.1225 0.5753
vn 0.8047 0.1218 0.5811
vn 0.9074 0.1420 0.3956
vn 0.9053 0.1416 0.4006
vn 0.9672 0.1551 0.2013
vn 0.9666 0.1550 0.2042
vn 0.0000 1.0000 0.0000
f 1/1/1 2/2/1 3/3/1
f 3/3/1 4/4/1 5/5/1
f 5/5/1 6/6/1 7/7/1
f 3/3/1 5/5/1 7/7/1
f 7/7/1 8/8/1 9/9/1
f 9/9/1 10/10/1 11/11/1
f 7/7/1 9/9/1 11/11/1
f 3/3/1 7/7/1 11/11/1
f 11/11/1 12/12/1 13/13/1
f 13/13/1 14/14/1 15/15/1
f 11/11/1 13/13/1 15/15/1
f 15/15/1 16/16/1 17/17/1
f 17/17/1 18/18/1 19/19/1
f 15/15/1 17/17/1 19/19/1
f 11/11/1 15/15/1 19/19/1
f 19/19/1 20/20/1 21/21/1
f 21/21/1 22/22/1 23/23/1
f 19/19/1 21/21/1 23/23/1
f 23/23/1 24/24/1 25/25/1
f 25/25/1 26/26/1 27/27/1
f 23/23/1 25/25/1 27/27/1
f 19/19/1 23/23/1 27/27/1
f 11/11/1 19/19/1 27/27/1
f 3/3/1 11/11/1 27/27/1
f 27/27/1 28/28/1 29/29/1
f 3/3/1 27/27/1 29/29/1
f 1/1/1 3/3/1 29/29/1
f 30/30/1 1/1/1 29/29/1
f 29/31/2 28/32/3 31/33/4
f 31/33/4 32/34/2 29/31/2
f 28/32/3 27/35/5 33/36/6
f 33/36/6 31/33/4 28/32/3
f 27/35/5 26/37/7 34/38/8
f 34/38/8 33/36/6 27/35/5
f 26/37/7 25/39/9 35/40/10
f 35/40/10 34/38/8 26/37/7
f 25/39/9 24/41/11 36/42/12
f 36/42/12 35/40/10 25/39/9
f 24/41/11 23/43/13 37/44/14
f 37/44/14 36/42/12 24/41/11
f 23/43/13 22/45/15 38/46/16
f 38/46/16 37/44/14 23/43/13
f 22/45/15 21/47/17 39/48/18
f 39/48/18 38/46/16 22/45/15
f 21/47/17 20/49/19 40/50/20
f 40/50/20 39/48/18 21/47/17
f 20/49/19 19/51/21 41/52/22
f 41/52/22 40/50/20 20/49/19
f 19/51/21 18/53/23 42/54/24
f 42/54/24 41/52/22 19/51/21
f 18/53/23 17/55/25 43/56/26
f 43/56/26 42/54/24 18/53/23
f 17/55/25 16/57/27 44/58/28
f 44/58/28 43/56/26 17/55/25
f 16/57/27 15/59/29 45/60/30
f 45/60/30 44/58/28 16/57/27
f 15/59/29 14/61/31 46/62/31
f 46/62/31 45/60/30 15/59/29
f 14/61/31 13/63/32 47/64/33
f 47/64/33 46/62/31 14/61/31
f 13/63/32 12/65/34 48/66/35
f 48/66/35 47/64/33 13/63/32
f 12/65/34 11/67/36 49/68/37
f 49/68/37 48/66/35 12/65/34
f 11/67/36 10/69/38 50/70/39
f 50/70/39 49/68/37 11/67/36
f 10/69/38 9/71/40 51/72/41
f 51/72/41 50/70/39 10/69/38
f 9/71/40 8/73/42 52/74/43
f 52/74/43 51/72/41 9/71/40
f 8/73/42 7/75/44 53/76/45
f 53/76/45 52/74/43 8/73/42
f 7/75/44 6/77/46 54/78/47
f 54/78/47 53/76/45 7/75/44
f 6/77/46 5/79/48 55/80/49
f 55/80/49 54/78/47 6/77/46
f 5/79/48 4/81/50 56/82/51
f 56/82/51 55/80/49 5/79/48
f 4/81/50 3/83/52 57/84/53
f 57/84/53 56/82/51 4/81/50
f 3/83/52 2/85/54 58/86/55
f 58/86/55 57/84/53 3/83/52
f 2/85/54 1/87/56 59/88/57
f 59/88/57 58/86/55 2/85/54
f 1/87/56 30/89/58 60/90/59
f 60/90/59 59/88/57 1/87/56
f 30/89/58 29/31/2 32/34/2
f 32/34/2 60/90/59 30/89/58
f 32/91/60 31/92/60 33/93/60
f 33/93/60 34/94/60 35/95/60
f 35/95/60 36/96/60 37/97/60
f 33/93/60 35/95/60 37/97/60
f 37/97/60 38/98/60 39/99/60
f 39/99/60 40/100/60 41/101/60
f 37/97/60 39/99/60 41/101/60
f 33/93/60 37/97/60 41/101/60
f 41/101/60 42/102/60 43/103/60
f 43/103/60 44/104/60 45/105/60
f 41/101/60 43/103/60 45/105/60
f 45/105/60 46/106/60 47/107/60
f 47/107/60 48/108/60 49/109/60
f 45/105/60 47/107/60 49/109/60
f 41/101/60 45/105/60 49/109/60
f 49/109/60 50/110/60 51/111/60
f 51/111/60 52/112/60 53/113/60
f 49/109/60 51/111/60 53/113/60
f 53/113/60 54/114/60 55/115/60
f 55/115/60 56/116/60 57/117/60
f 53/113/60 55/115/60 57/117/60
f 49/109/60 53/113/60 57/117/60
f 41/101/60 49/109/60 57/117/60
f 33/93/60 41/101/60 57/117/60
f 57/117/60 58/118/60 59/119/60
f 33/93/60 57/117/60 59/119/60
f 32/91/60 33/93/60 59/119/60
f 60/120/60 32/91/60 59/119/60
